<!-- Simple decorative SVG illustration (smiling sun) -->
<svg xmlns="http://www.w3.org/2000/svg" viewBox="0 0 200 200" width="600" height="600">
  <defs>
    <linearGradient id="g" x1="0" x2="1">
      <stop offset="0%" stop-color="#ffd166"/>
      <stop offset="100%" stop-color="#ff6b6b"/>
    </linearGradient>
  </defs>
  <rect width="100%" height="100%" fill="none"/>
  <g transform="translate(100,100)">
    <circle r="48" fill="url(#g)" />
    <g transform="translate(-20,10)" fill="#102a43">
      <path d="M10 0 a6 6 0 1 0 0.001 0" />
      <path d="M60 0 a6 6 0 1 0 0.001 0" transform="translate(-10,0)" />
    </g>
    <path d="M-22 20 q22 24 44 0" stroke="#102a43" stroke-width="4" fill="none" stroke-linecap="round" stroke-linejoin="round"/>
    <!-- rays -->
    <g stroke="#ffb677" stroke-width="4">
      <line x1="0" y1="-78" x2="0" y2="-102"/>
      <line x1="0" y1="78" x2="0" y2="102"/>
      <line x1="-78" y1="0" x2="-102" y2="0"/>
      <line x1="78" y1="0" x2="102" y2="0"/>
      <line x1="-56" y1="-56" x2="-76" y2="-76"/>
      <line x1="56" y1="56" x2="76" y2="76"/>
      <line x1="56" y1="-56" x2="76" y2="-76"/>
      <line x1="-56" y1="56" x2="-76" y2="76"/>
    </g>
  </g>
</svg>
